<?xml version="1.0" standalone="no"?>
<!DOCTYPE svg PUBLIC "-//W3C//DTD SVG 1.1//EN" "http://www.w3.org/Graphics/SVG/1.1/DTD/svg11.dtd" >
<svg xmlns="http://www.w3.org/2000/svg">
<metadata></metadata>
<defs>
<font id="pirulenregular" horiz-adv-x="2109" >
<font-face units-per-em="2048" ascent="1556" descent="-492" />
<missing-glyph horiz-adv-x="1024" />
<glyph unicode="&#x28;C&#x29;" horiz-adv-x="1681" d="M123 422v618q0 399 395 400h598q420 0 420 -400v-618q0 -420 -420 -420h-598q-395 0 -395 420zM291 422q0 -233 227 -234h598q244 0 244 234v618q0 225 -244 226h-598q-227 0 -227 -226v-618zM449 571v322q0 100 66.5 162.5t225.5 62.5h426v-139h-426q-117 0 -116 -86 v-322q0 -86 116 -86h426v-139h-426q-160 0 -226 62.5t-66 162.5z" />
<glyph unicode="&#x28;R&#x29;" horiz-adv-x="1349" d="M123 637v487q0 315 311 316h473q332 0 332 -316v-487q0 -332 -332 -332h-473q-311 0 -311 332zM256 637q0 -184 178 -184h473q193 0 193 184v487q0 178 -193 179h-473q-178 0 -178 -179v-487zM424 606v557h364q166 0 166 -141v-35q0 -57 -32.5 -90t-77.5 -41l114 -250 h-137l-114 244h-156v-244h-127zM551 952h237q37 0 37 27v43q0 29 -37 29h-237v-99z" />
<glyph horiz-adv-x="2048" />
<glyph horiz-adv-x="2048" />
<glyph unicode="&#xd;" horiz-adv-x="1024" />
<glyph horiz-adv-x="1024" />
<glyph unicode=" "  horiz-adv-x="1024" />
<glyph unicode="&#x09;" horiz-adv-x="1024" />
<glyph unicode="&#xa0;" horiz-adv-x="1024" />
<glyph unicode="!" horiz-adv-x="561" d="M123 1442h313l-61 -1032h-191zM160 0v266h239v-266h-239z" />
<glyph unicode="&#x22;" horiz-adv-x="845" d="M123 1196v246h213v-248l-78 -211h-63zM496 1200v242h211v-242l-66 -217h-88z" />
<glyph unicode="#" horiz-adv-x="1208" d="M109 422v184h204v254h-204v184h204v398h185v-398h225v398h184v-398h205v-184h-205v-254h205v-184h-205v-422h-184v422h-225v-422h-185v422h-204zM498 606h225v254h-225v-254z" />
<glyph unicode="$" horiz-adv-x="1196" d="M100 918v57q0 59 18.5 109.5t60.5 86t107.5 55t159.5 19.5h68v197h215v-197h342v-198h-625q-106 0 -106 -70v-62q0 -72 106 -71h338q94 0 160 -19.5t107 -55.5t59 -86t18 -110v-67q0 -121 -78.5 -195.5t-265.5 -74.5h-55v-236h-215v236h-379v198h649q102 0 103 70v71 q0 70 -103 70h-338q-94 0 -159.5 19.5t-107.5 55.5t-60.5 86t-18.5 112z" />
<glyph unicode="%" horiz-adv-x="2093" d="M123 916v372q0 78 51.5 126t173.5 48h340q123 0 174.5 -48t51.5 -126v-372q0 -78 -51.5 -126t-174.5 -48h-340q-123 0 -174 48t-51 126zM221 -61l1481 1585h170l-1483 -1585h-168zM258 914q0 -66 90 -66h340q90 0 91 66v374q0 68 -91 68h-340q-90 0 -90 -68v-374z M1179 154v372q0 78 51.5 126t173.5 48h340q123 0 174.5 -48t51.5 -126v-372q0 -78 -51.5 -126t-174.5 -48h-340q-123 0 -174 48t-51 126zM1314 152q0 -66 90 -66h340q90 0 91 66v374q0 68 -91 68h-340q-90 0 -90 -68v-374z" />
<glyph unicode="&#x26;" horiz-adv-x="1693" d="M123 311v236q0 104 53 158.5t135 76.5q-78 16 -124 81t-46 159v108q0 72 24.5 130.5t77 98.5t136.5 61.5t205 21.5h653v-213h-653q-96 0 -133 -26.5t-37 -86.5v-125q0 -59 36.5 -85.5t133.5 -26.5h1079v-213h-176v-666h-907q-133 0 -221.5 25.5t-140.5 68.5t-73.5 99.5 t-21.5 117.5zM395 362q0 -88 51.5 -118.5t133.5 -30.5h634v453h-634q-82 0 -133.5 -28t-51.5 -95v-181z" />
<glyph unicode="'" horiz-adv-x="514" d="M123 1196v246h252v-248l-74 -211h-106z" />
<glyph unicode="(" horiz-adv-x="616" d="M164 727q0 229 60.5 460.5t176.5 479.5h191q-258 -528 -258 -942q0 -215 61.5 -445.5t200.5 -502.5h-188q-129 256 -186.5 485.5t-57.5 464.5z" />
<glyph unicode=")" horiz-adv-x="616" d="M20 -223q137 272 200 502.5t63 445.5q0 414 -258 942h190q117 -248 177.5 -479.5t60.5 -460.5q0 -236 -57.5 -465t-186.5 -485h-189z" />
<glyph unicode="*" horiz-adv-x="870" d="M68 1153l61 164l240 -111l-39 252h207l-33 -254l244 111l53 -166l-269 -53l185 -187l-166 -114l-115 221l-131 -219l-158 116l187 179z" />
<glyph unicode="+" horiz-adv-x="1112" d="M82 668v151h397v398h152v-398h397v-151h-397v-398h-152v398h-397z" />
<glyph unicode="," horiz-adv-x="550" d="M123 -150v416h280v-123l-172 -293h-108z" />
<glyph unicode="-" horiz-adv-x="854" d="M43 657v228h766v-228h-766z" />
<glyph unicode="." horiz-adv-x="583" d="M123 0v266h321v-266h-321z" />
<glyph unicode="/" horiz-adv-x="995" d="M14 -82l795 1606h180l-794 -1606h-181z" />
<glyph unicode="0" horiz-adv-x="1828" d="M123 348v746q0 78 24.5 141t79 109.5t140.5 72t208 25.5h678q123 0 209 -25.5t140.5 -72t79 -110t24.5 -140.5v-746q0 -78 -24.5 -141.5t-79 -109.5t-140.5 -71.5t-209 -25.5h-678q-123 0 -208.5 25.5t-140 71.5t-79 109.5t-24.5 141.5zM395 346q0 -133 180 -133h678 q180 0 181 133v750q0 133 -181 133h-678q-180 0 -180 -133v-750z" />
<glyph unicode="1" horiz-adv-x="804" d="M10 1124l281 318h379v-1442h-273v1239l-100 -115h-287z" />
<glyph unicode="2" horiz-adv-x="1716" d="M109 0v526q0 78 24.5 141.5t78.5 109.5t140 71.5t209 25.5h586q180 0 180 134v88q0 133 -180 133h-961v213h961q123 0 209 -25.5t140 -72t78.5 -110t24.5 -140.5v-84q0 -78 -24.5 -141.5t-78.5 -109.5t-140 -71.5t-209 -25.5h-586q-180 0 -180 -134v-315h1218v-213h-1490 z" />
<glyph unicode="3" horiz-adv-x="1656" d="M111 0v213h966q82 0 133.5 30.5t51.5 118.5v181q0 68 -51.5 95.5t-133.5 27.5h-905v213h901q96 0 133 26.5t37 85.5v125q0 59 -37 86t-133 27h-962v213h962q119 0 204 -21.5t137 -61.5t77 -98.5t25 -130.5v-108q0 -94 -46.5 -158.5t-123.5 -81.5q82 -23 135 -77t53 -158 v-236q0 -61 -21.5 -117.5t-74 -99.5t-140.5 -68.5t-221 -25.5h-966z" />
<glyph unicode="4" horiz-adv-x="1804" d="M33 246v172l762 1024h295l-734 -983h977v983h273v-983h151v-213h-151v-246h-273v246h-1300z" />
<glyph unicode="5" horiz-adv-x="1710" d="M125 0v213h1030q180 0 180 133v258q0 133 -180 133h-1030v705h1436v-213h-1164v-279h758q123 0 209 -25.5t140.5 -71.5t79 -109.5t24.5 -141.5v-254q0 -78 -24.5 -141.5t-79 -109.5t-140.5 -71.5t-209 -25.5h-1030z" />
<glyph unicode="6" horiz-adv-x="1873" d="M123 348v746q0 78 24.5 141t79 109.5t140.5 72t208 25.5h1115v-213h-1115q-180 0 -180 -133v-166h910q123 0 208.5 -25.5t140 -72t79 -110t24.5 -140.5v-234q0 -78 -24.5 -141.5t-79 -109.5t-140.5 -71.5t-208 -25.5h-730q-123 0 -208.5 25.5t-140 71.5t-79 109.5 t-24.5 141.5zM395 346q0 -133 180 -133h730q180 0 180 133v238q0 133 -180 133h-910v-371z" />
<glyph unicode="7" horiz-adv-x="1720" d="M68 1229v213h1613v-172l-960 -1270h-309l962 1229h-1306z" />
<glyph unicode="8" horiz-adv-x="1886" d="M123 311v236q0 104 53 158.5t135 76.5q-78 16 -124 81t-46 159v108q0 72 24.5 130.5t77 98.5t136.5 61.5t205 21.5h719q119 0 203.5 -21.5t137 -61.5t77 -98.5t24.5 -130.5v-108q0 -94 -46 -158.5t-124 -81.5q82 -23 135 -77t53 -158v-236q0 -61 -21.5 -117.5 t-73.5 -99.5t-140 -68.5t-221 -25.5h-727q-133 0 -221.5 25.5t-140.5 68.5t-73.5 99.5t-21.5 117.5zM395 362q0 -88 51.5 -118.5t133.5 -30.5h727q82 0 133 30.5t51 118.5v181q0 68 -51 95.5t-133 27.5h-727q-82 0 -133.5 -28t-51.5 -95v-181zM414 991q0 -59 36.5 -85.5 t133.5 -26.5h719q96 0 133 26.5t37 85.5v125q0 59 -37 86t-133 27h-719q-96 0 -133 -26.5t-37 -86.5v-125z" />
<glyph unicode="9" horiz-adv-x="1880" d="M123 897v197q0 78 24.5 141t79 109.5t140.5 72t208 25.5h730q123 0 208.5 -25.5t140 -72t79 -110t24.5 -140.5v-746q0 -78 -24.5 -141.5t-79 -109.5t-140.5 -71.5t-208 -25.5h-1104v213h1104q180 0 180 133v203h-910q-123 0 -208.5 25.5t-140 71.5t-79 109.5t-24.5 141.5 zM395 895q0 -133 180 -133h910v334q0 133 -180 133h-730q-180 0 -180 -133v-201z" />
<glyph unicode=":" horiz-adv-x="518" d="M119 0v266h280v-266h-280zM119 819v266h280v-266h-280z" />
<glyph unicode=";" horiz-adv-x="540" d="M129 -150v416h281v-123l-172 -293h-109zM129 819v266h281v-266h-281z" />
<glyph unicode="&#x3c;" horiz-adv-x="1099" d="M129 678v135l840 483v-178l-662 -375l662 -376v-179z" />
<glyph unicode="=" horiz-adv-x="1099" d="M82 463v151h946v-151h-946zM82 872v152h946v-152h-946z" />
<glyph unicode="&#x3e;" horiz-adv-x="1099" d="M129 188v179l662 376l-662 375v178l840 -483v-135z" />
<glyph unicode="?" horiz-adv-x="1378" d="M94 1229v213h803q123 0 209 -25.5t140 -72t79 -110t25 -140.5v-84q0 -78 -25 -141.5t-79 -109.5t-140 -71.5t-209 -25.5h-223q-180 0 -180 -134v-127h-232v125q0 78 24.5 141.5t80 109.5t141.5 71.5t209 25.5h180q180 0 180 134v88q0 133 -180 133h-803zM262 0v266h232 v-266h-232z" />
<glyph unicode="@" horiz-adv-x="1835" d="M123 53v1041q0 78 24.5 141t79 109.5t140.5 72t208 25.5h685q123 0 208.5 -25.5t140 -72t79 -110t24.5 -140.5v-584q0 -78 -24.5 -141.5t-79 -109.5t-140.5 -71.5t-208 -25.5h-181q-123 0 -209 25.5t-140 71.5t-78.5 109.5t-24.5 141.5v137q0 78 24.5 141.5t78.5 109.5 t140 71.5t209 25.5h361v101q0 133 -180 133h-685q-180 0 -180 -133v-1045q0 -133 180 -133h1129v-213h-1129q-123 0 -208.5 25.5t-140 71.5t-79 109.5t-24.5 141.5zM899 508q0 -133 180 -133h181q180 0 180 133v274h-361q-180 0 -180 -133v-141z" />
<glyph unicode="A" d="M0 0l958 1442h199l952 -1442h-307l-743 1161l-756 -1161h-303z" />
<glyph unicode="B" horiz-adv-x="1890" d="M133 0v1442h1174q119 0 203.5 -21.5t137 -61.5t77 -98.5t24.5 -130.5v-133q0 -94 -46 -158.5t-124 -80.5q82 -23 135 -77t53 -159v-211q0 -61 -21.5 -117.5t-73.5 -99.5t-140 -68.5t-221 -25.5h-1178zM406 213h905q82 0 133 30.5t51 118.5v156q0 68 -51 95.5t-133 27.5 h-905v-428zM406 854h901q96 0 133 26.5t37 86.5v149q0 59 -37 86t-133 27h-901v-375z" />
<glyph unicode="C" horiz-adv-x="1832" d="M123 348v746q0 78 24.5 141t79 109.5t140.5 72t208 25.5h1162v-213h-1162q-180 0 -180 -133v-750q0 -133 180 -133h1162v-213h-1162q-123 0 -208.5 25.5t-140 71.5t-79 109.5t-24.5 141.5z" />
<glyph unicode="D" d="M133 0v1442h1321q154 0 256 -26.5t163.5 -80t87.5 -133.5t26 -186v-604q0 -102 -26 -179t-87.5 -128.5t-163.5 -78t-256 -26.5h-1321zM406 213h1048q76 0 126 10t80 33t42 61.5t12 96.5v602q0 61 -12 102t-42 65.5t-80 35t-126 10.5h-1048v-1016z" />
<glyph unicode="E" horiz-adv-x="1714" d="M133 0v1442h1483v-213h-1210v-361h1148v-213h-1148v-442h1210v-213h-1483z" />
<glyph unicode="F" horiz-adv-x="1630" d="M133 0v1442h1483v-213h-1210v-422h1128v-213h-1128v-594h-273z" />
<glyph unicode="G" horiz-adv-x="1906" d="M123 311v819q0 311 514 312h1128v-213h-1128q-242 0 -242 -99v-819q0 -98 242 -98h637q242 0 242 94v479h272v-479q0 -307 -514 -307h-637q-514 0 -514 311z" />
<glyph unicode="H" horiz-adv-x="1990" d="M133 0v1442h273v-574h1179v574h273v-1442h-273v655h-1179v-655h-273z" />
<glyph unicode="I" horiz-adv-x="559" d="M143 0v1442h273v-1442h-273z" />
<glyph unicode="J" horiz-adv-x="991" d="M18 0v213h396q94 0 136 23.5t42 70.5v1135h272v-1135q0 -68 -25.5 -124t-79.5 -97t-140.5 -63.5t-204.5 -22.5h-396z" />
<glyph unicode="K" horiz-adv-x="1759" d="M133 0v1442h273v-586h462l543 586h324l-641 -672l639 -770h-314l-545 643h-468v-643h-273z" />
<glyph unicode="L" horiz-adv-x="1634" d="M133 0v1442h275v-1229h1169v-213h-1444z" />
<glyph unicode="M" horiz-adv-x="2461" d="M133 0v1442h254l856 -1178l852 1178h234v-1442h-252v1010l-734 -1010h-223l-735 1008v-1008h-252z" />
<glyph unicode="N" horiz-adv-x="2174" d="M133 0v1442h236l1435 -1071v1071h238v-1442h-133l-1538 1122v-1122h-238z" />
<glyph unicode="O" horiz-adv-x="2103" d="M123 348v746q0 78 24.5 141t79 109.5t140.5 72t208 25.5h953q123 0 209 -25.5t140 -72t78.5 -110t24.5 -140.5v-746q0 -78 -24.5 -141.5t-78.5 -109.5t-140 -71.5t-209 -25.5h-953q-123 0 -208.5 25.5t-140 71.5t-79 109.5t-24.5 141.5zM395 346q0 -133 180 -133h953 q180 0 180 133v750q0 133 -180 133h-953q-180 0 -180 -133v-750z" />
<glyph unicode="P" horiz-adv-x="1824" d="M133 0v1442h1182q123 0 209 -25.5t140 -72t78.5 -110t24.5 -140.5v-213q0 -78 -24.5 -141.5t-78.5 -109.5t-140 -72t-209 -26h-909v-532h-273zM406 745h909q180 0 180 134v217q0 133 -180 133h-909v-484z" />
<glyph unicode="Q" horiz-adv-x="2103" d="M123 348v746q0 78 24.5 141t79 109.5t140.5 72t208 25.5h953q123 0 209 -25.5t140 -72t78.5 -110t24.5 -140.5v-746q0 -143 -87 -236.5t-291 -109.5l184 -321h-291l-174 319h-746q-123 0 -208.5 25.5t-140 71.5t-79 109.5t-24.5 141.5zM395 346q0 -133 180 -133h953 q180 0 180 133v750q0 133 -180 133h-953q-180 0 -180 -133v-750z" />
<glyph unicode="R" horiz-adv-x="1896" d="M133 0v1442h1225q123 0 209 -25.5t140 -72t78.5 -110t24.5 -140.5v-103q0 -139 -81.5 -232t-274.5 -112l340 -647h-291l-338 643h-759v-643h-273zM406 856h952q180 0 180 133v107q0 133 -180 133h-952v-373z" />
<glyph unicode="S" horiz-adv-x="1947" d="M104 1010v84q0 78 25 141t79 109.5t140 72t209 25.5h1221v-213h-1221q-180 0 -180 -133v-88q0 -133 180 -134h848q123 0 209 -25.5t140 -71.5t79 -109.5t25 -141.5v-178q0 -78 -25 -141.5t-79 -109.5t-140 -71.5t-209 -25.5h-1253v213h1253q180 0 180 133v182 q0 133 -180 134h-848q-123 0 -209 25.5t-140 71.5t-79 109.5t-25 141.5z" />
<glyph unicode="T" horiz-adv-x="1859" d="M47 1229v213h1763v-213h-735v-1229h-272v1229h-756z" />
<glyph unicode="U" horiz-adv-x="2054" d="M127 348v1094h272v-1096q0 -133 181 -133h895q180 0 180 133v1096h272v-1094q0 -78 -15.5 -141.5t-59.5 -109.5t-120.5 -71.5t-199.5 -25.5h-952q-123 0 -209 25.5t-140.5 71.5t-79 109.5t-24.5 141.5z" />
<glyph unicode="V" d="M0 1442h309l754 -1161l745 1161h301l-952 -1442h-199z" />
<glyph unicode="W" horiz-adv-x="2742" d="M0 1442h262l502 -1106l506 1106h203l499 -1106l506 1106h264l-665 -1442h-205l-500 1106l-510 -1106h-198z" />
<glyph unicode="X" horiz-adv-x="2039" d="M25 0l823 721l-823 721h354l641 -578l641 578h350l-817 -711l821 -731h-352l-643 575l-639 -575h-356z" />
<glyph unicode="Y" horiz-adv-x="2117" d="M0 1442h348l713 -660l713 660h344l-920 -856v-586h-272v586z" />
<glyph unicode="Z" horiz-adv-x="2111" d="M98 0v184l1458 1024h-1458v234h1938v-185l-1465 -1024h1465v-233h-1938z" />
<glyph unicode="[" horiz-adv-x="557" d="M160 -225v1892h342v-151h-152v-1594h152v-147h-342z" />
<glyph unicode="\" horiz-adv-x="995" d="M14 1524h181l794 -1606h-180z" />
<glyph unicode="]" horiz-adv-x="552" d="M51 -78h152v1594h-152v151h342v-1892h-342v147z" />
<glyph unicode="^" horiz-adv-x="1316" d="M98 602l490 840h135l483 -840h-178l-375 662l-377 -662h-178z" />
<glyph unicode="_" horiz-adv-x="1333" d="M0 -115h1333v-172h-1333v172z" />
<glyph unicode="`" horiz-adv-x="876" d="M102 1626v232l672 -142v-170z" />
<glyph unicode="a" d="M0 0l958 1442h199l952 -1442h-307l-743 1161l-756 -1161h-303z" />
<glyph unicode="b" horiz-adv-x="1890" d="M133 0v1442h1174q119 0 203.5 -21.5t137 -61.5t77 -98.5t24.5 -130.5v-133q0 -94 -46 -158.5t-124 -80.5q82 -23 135 -77t53 -159v-211q0 -61 -21.5 -117.5t-73.5 -99.5t-140 -68.5t-221 -25.5h-1178zM406 213h905q82 0 133 30.5t51 118.5v156q0 68 -51 95.5t-133 27.5 h-905v-428zM406 854h901q96 0 133 26.5t37 86.5v149q0 59 -37 86t-133 27h-901v-375z" />
<glyph unicode="c" horiz-adv-x="1832" d="M123 348v746q0 78 24.5 141t79 109.5t140.5 72t208 25.5h1162v-213h-1162q-180 0 -180 -133v-750q0 -133 180 -133h1162v-213h-1162q-123 0 -208.5 25.5t-140 71.5t-79 109.5t-24.5 141.5z" />
<glyph unicode="d" d="M133 0v1442h1321q154 0 256 -26.5t163.5 -80t87.5 -133.5t26 -186v-604q0 -102 -26 -179t-87.5 -128.5t-163.5 -78t-256 -26.5h-1321zM406 213h1048q76 0 126 10t80 33t42 61.5t12 96.5v602q0 61 -12 102t-42 65.5t-80 35t-126 10.5h-1048v-1016z" />
<glyph unicode="e" horiz-adv-x="1714" d="M133 0v1442h1483v-213h-1210v-361h1148v-213h-1148v-442h1210v-213h-1483z" />
<glyph unicode="f" horiz-adv-x="1630" d="M133 0v1442h1483v-213h-1210v-422h1128v-213h-1128v-594h-273z" />
<glyph unicode="g" horiz-adv-x="1906" d="M123 311v819q0 311 514 312h1128v-213h-1128q-242 0 -242 -99v-819q0 -98 242 -98h637q242 0 242 94v479h272v-479q0 -307 -514 -307h-637q-514 0 -514 311z" />
<glyph unicode="h" horiz-adv-x="1990" d="M133 0v1442h273v-574h1179v574h273v-1442h-273v655h-1179v-655h-273z" />
<glyph unicode="i" horiz-adv-x="559" d="M143 0v1442h273v-1442h-273z" />
<glyph unicode="j" horiz-adv-x="991" d="M18 0v213h396q94 0 136 23.5t42 70.5v1135h272v-1135q0 -68 -25.5 -124t-79.5 -97t-140.5 -63.5t-204.5 -22.5h-396z" />
<glyph unicode="k" horiz-adv-x="1759" d="M133 0v1442h273v-586h462l543 586h324l-641 -672l639 -770h-314l-545 643h-468v-643h-273z" />
<glyph unicode="l" horiz-adv-x="1634" d="M133 0v1442h275v-1229h1169v-213h-1444z" />
<glyph unicode="m" horiz-adv-x="2461" d="M133 0v1442h254l856 -1178l852 1178h234v-1442h-252v1010l-734 -1010h-223l-735 1008v-1008h-252z" />
<glyph unicode="n" horiz-adv-x="2174" d="M133 0v1442h236l1435 -1071v1071h238v-1442h-133l-1538 1122v-1122h-238z" />
<glyph unicode="o" horiz-adv-x="2103" d="M123 348v746q0 78 24.5 141t79 109.5t140.5 72t208 25.5h953q123 0 209 -25.5t140 -72t78.5 -110t24.5 -140.5v-746q0 -78 -24.5 -141.5t-78.5 -109.5t-140 -71.5t-209 -25.5h-953q-123 0 -208.5 25.5t-140 71.5t-79 109.5t-24.5 141.5zM395 346q0 -133 180 -133h953 q180 0 180 133v750q0 133 -180 133h-953q-180 0 -180 -133v-750z" />
<glyph unicode="p" horiz-adv-x="1824" d="M133 0v1442h1182q123 0 209 -25.5t140 -72t78.5 -110t24.5 -140.5v-213q0 -78 -24.5 -141.5t-78.5 -109.5t-140 -72t-209 -26h-909v-532h-273zM406 745h909q180 0 180 134v217q0 133 -180 133h-909v-484z" />
<glyph unicode="q" horiz-adv-x="2103" d="M123 348v746q0 78 24.5 141t79 109.5t140.5 72t208 25.5h953q123 0 209 -25.5t140 -72t78.5 -110t24.5 -140.5v-746q0 -143 -87 -236.5t-291 -109.5l184 -321h-291l-174 319h-746q-123 0 -208.5 25.5t-140 71.5t-79 109.5t-24.5 141.5zM395 346q0 -133 180 -133h953 q180 0 180 133v750q0 133 -180 133h-953q-180 0 -180 -133v-750z" />
<glyph unicode="r" horiz-adv-x="1896" d="M133 0v1442h1225q123 0 209 -25.5t140 -72t78.5 -110t24.5 -140.5v-103q0 -139 -81.5 -232t-274.5 -112l340 -647h-291l-338 643h-759v-643h-273zM406 856h952q180 0 180 133v107q0 133 -180 133h-952v-373z" />
<glyph unicode="s" horiz-adv-x="1947" d="M104 1010v84q0 78 25 141t79 109.5t140 72t209 25.5h1221v-213h-1221q-180 0 -180 -133v-88q0 -133 180 -134h848q123 0 209 -25.5t140 -71.5t79 -109.5t25 -141.5v-178q0 -78 -25 -141.5t-79 -109.5t-140 -71.5t-209 -25.5h-1253v213h1253q180 0 180 133v182 q0 133 -180 134h-848q-123 0 -209 25.5t-140 71.5t-79 109.5t-25 141.5z" />
<glyph unicode="t" horiz-adv-x="1859" d="M47 1229v213h1763v-213h-735v-1229h-272v1229h-756z" />
<glyph unicode="u" horiz-adv-x="2054" d="M127 348v1094h272v-1096q0 -133 181 -133h895q180 0 180 133v1096h272v-1094q0 -78 -15.5 -141.5t-59.5 -109.5t-120.5 -71.5t-199.5 -25.5h-952q-123 0 -209 25.5t-140.5 71.5t-79 109.5t-24.5 141.5z" />
<glyph unicode="v" d="M0 1442h309l754 -1161l745 1161h301l-952 -1442h-199z" />
<glyph unicode="w" horiz-adv-x="2742" d="M0 1442h262l502 -1106l506 1106h203l499 -1106l506 1106h264l-665 -1442h-205l-500 1106l-510 -1106h-198z" />
<glyph unicode="x" horiz-adv-x="2039" d="M25 0l823 721l-823 721h354l641 -578l641 578h350l-817 -711l821 -731h-352l-643 575l-639 -575h-356z" />
<glyph unicode="y" horiz-adv-x="2117" d="M0 1442h348l713 -660l713 660h344l-920 -856v-586h-272v586z" />
<glyph unicode="z" horiz-adv-x="2111" d="M98 0v184l1458 1024h-1458v234h1938v-185l-1465 -1024h1465v-233h-1938z" />
<glyph unicode="{" horiz-adv-x="602" d="M53 649v142q152 0 152 118v529q0 229 248 229h94v-131q-152 0 -152 -57v-570q0 -123 -137 -192q137 -70 137 -189v-565q0 -57 152 -57v-131h-94q-248 0 -248 229v524q0 121 -152 121z" />
<glyph unicode="|" horiz-adv-x="661" d="M236 -225v1892h190v-1892h-190z" />
<glyph unicode="}" horiz-adv-x="604" d="M66 -94q152 0 151 57v565q0 119 137 189q-137 70 -137 192v570q0 57 -151 57v131h94q248 0 248 -229v-529q0 -119 151 -118v-142q-152 0 -151 -121v-524q0 -229 -248 -229h-94v131z" />
<glyph unicode="~" horiz-adv-x="1112" d="M82 672v127q47 25 108.5 36t133.5 11q63 0 119.5 -10.5t111.5 -22.5t112.5 -22.5t118.5 -10.5q74 0 137.5 16.5t104.5 39.5v-125q-47 -27 -108.5 -37t-133.5 -10q-61 0 -117.5 10t-111.5 21.5t-112.5 21.5t-120.5 10q-74 0 -138.5 -16.5t-103.5 -38.5z" />
<glyph unicode="&#xa1;" horiz-adv-x="561" d="M123 0l61 1032h191l61 -1032h-313zM160 1176v266h239v-266h-239z" />
<glyph unicode="&#xa2;" horiz-adv-x="1126" d="M123 449v526q0 59 18.5 109.5t59.5 86t106.5 55t159.5 19.5h70v197h215v-197h270v-198h-555q-102 0 -102 -70v-531q0 -72 102 -71h555v-197h-270v-178h-215v178h-70q-94 0 -159.5 19.5t-106.5 55.5t-59.5 85t-18.5 111z" />
<glyph unicode="&#xa3;" horiz-adv-x="1497" d="M76 0v213h162v442h-152v213h152v228q0 180 121.5 263t336.5 83h680v-213h-680q-80 0 -133 -29t-53 -104v-228h440v-213h-440v-442h907v-213h-1341z" />
<glyph unicode="&#xa5;" horiz-adv-x="1622" d="M66 1442h276l471 -641l469 641h272l-501 -688h387v-191h-488v-145h488v-191h-488v-227h-278v227h-486v191h486v145h-486v191h381z" />
<glyph unicode="&#xa6;" horiz-adv-x="661" d="M236 -225v858h190v-858h-190zM236 823v844h190v-844h-190z" />
<glyph unicode="&#xa7;" horiz-adv-x="1183" d="M74 672v98q0 59 18.5 109.5t60.5 86t107.5 55t159.5 19.5h35v131q0 59 18.5 109.5t60 86.5t107.5 55.5t160 19.5h223v-199h-223q-106 0 -107 -69v-134h97q94 0 159.5 -19.5t106.5 -55t59.5 -86t18.5 -109.5v-98q0 -121 -79 -196t-268 -75h-34v-131q0 -121 -79 -195.5 t-267 -74.5h-224v199h224q106 0 106 69v133h-96q-94 0 -159.5 19.5t-106.5 55.5t-59.5 86t-18.5 110zM315 670q0 -70 103 -70h370q106 0 107 70v102q0 70 -102 70h-371q-106 0 -107 -70v-102z" />
<glyph unicode="&#xa8;" horiz-adv-x="1042" d="M102 1614v266h281v-266h-281zM659 1614v266h281v-266h-281z" />
<glyph unicode="&#xaa;" horiz-adv-x="1282" d="M61 614l527 793h110l523 -793h-168l-410 639l-416 -639h-166z" />
<glyph unicode="&#xab;" horiz-adv-x="1232" d="M106 678v135l488 281v-176l-309 -175l309 -176v-174zM639 678v135l487 281v-176l-309 -175l309 -176v-174z" />
<glyph unicode="&#xad;" horiz-adv-x="854" d="M43 657v228h766v-228h-766z" />
<glyph unicode="&#xaf;" horiz-adv-x="876" d="M102 1618v170h672v-170h-672z" />
<glyph unicode="&#xb0;" horiz-adv-x="665" d="M123 1227q0 236 235 235q238 0 238 -235q0 -238 -238 -238q-236 0 -235 238zM248 1227q0 -113 110 -113q113 0 113 109q0 115 -113 114q-111 0 -110 -110z" />
<glyph unicode="&#xb1;" horiz-adv-x="1112" d="M82 2v151h946v-151h-946zM82 668v151h397v398h152v-398h397v-151h-397v-398h-152v398h-397z" />
<glyph unicode="&#xb2;" horiz-adv-x="919" d="M84 742v262q0 78 52 126t175 48h293q90 0 90 67v43q0 68 -90 68h-481v106h481q123 0 174 -48t51 -126v-43q0 -78 -51 -126t-174 -48h-293q-90 0 -90 -65v-158h608v-106h-745z" />
<glyph unicode="&#xb3;" horiz-adv-x="888" d="M86 742v106h483q41 0 67 15.5t26 58.5v90q0 35 -26 48t-67 13h-452v107h450q47 0 65.5 13t18.5 44v62q0 31 -18.5 44t-65.5 13h-481v106h481q121 0 171 -42t50 -113v-56q0 -47 -23.5 -78.5t-62.5 -39.5q41 -10 68 -38t27 -81v-117q0 -31 -10.5 -59.5t-37 -50t-69.5 -33.5 t-111 -12h-483z" />
<glyph unicode="&#xb4;" horiz-adv-x="874" d="M102 1546v170l670 142v-232z" />
<glyph unicode="&#xb6;" horiz-adv-x="1452" d="M33 1065q0 377 514 377h770v-1667h-273v1290h-225v-1290h-274v1454q-240 -4 -240 -164h-272z" />
<glyph unicode="&#xb7;" horiz-adv-x="583" d="M123 614v267h321v-267h-321z" />
<glyph unicode="&#xb8;" horiz-adv-x="485" d="M102 -76h281v-123l-172 -293h-109v416z" />
<glyph unicode="&#xb9;" horiz-adv-x="462" d="M35 1303l141 159h189v-720h-136v618l-51 -57h-143z" />
<glyph unicode="&#xba;" horiz-adv-x="1280" d="M129 807v410q0 86 57.5 138t192.5 52h522q135 0 192.5 -52t57.5 -138v-410q0 -86 -57.5 -139.5t-192.5 -53.5h-522q-135 0 -192.5 53.5t-57.5 139.5zM279 805q0 -74 100 -74h522q100 0 100 74v412q0 74 -100 73h-522q-100 0 -100 -73v-412z" />
<glyph unicode="&#xbb;" horiz-adv-x="1232" d="M106 393v174l310 176l-310 175v176l488 -281v-135zM639 393v174l309 176l-309 175v176l487 -281v-135z" />
<glyph unicode="&#xbc;" horiz-adv-x="2082" d="M123 -61l1481 1585h170l-1483 -1585h-168zM336 1303l141 159h189v-720h-136v618l-51 -57h-143zM1098 102v86l381 512h147l-366 -491h487v491h138v-491h75v-107h-75v-122h-138v122h-649z" />
<glyph unicode="&#xbd;" horiz-adv-x="2084" d="M123 -61l1481 1585h170l-1483 -1585h-168zM336 1303l141 159h189v-720h-136v618l-51 -57h-143zM1217 -20v262q0 78 52 126t175 48h293q90 0 90 67v43q0 68 -90 68h-481v106h481q123 0 174 -48t51 -126v-43q0 -78 -51 -126t-174 -48h-293q-90 0 -90 -65v-158h608v-106 h-745z" />
<glyph unicode="&#xbe;" horiz-adv-x="2060" d="M123 742v106h483q41 0 67 15.5t26 58.5v90q0 35 -26 48t-67 13h-452v107h450q47 0 65.5 13t18.5 44v62q0 31 -18.5 44t-65.5 13h-481v106h481q121 0 171 -42t50 -113v-56q0 -47 -23.5 -78.5t-62.5 -39.5q41 -10 68 -38t27 -81v-117q0 -31 -10.5 -59.5t-37 -50 t-69.5 -33.5t-111 -12h-483zM203 -61l1481 1585h170l-1483 -1585h-168zM1075 102v86l381 512h147l-366 -491h487v491h138v-491h75v-107h-75v-122h-138v122h-649z" />
<glyph unicode="&#xbf;" horiz-adv-x="1378" d="M28 348v84q0 78 25 141.5t79 109.5t140 71.5t209 25.5h223q180 0 180 134v127h232v-125q0 -78 -24.5 -141.5t-80 -109.5t-141.5 -71.5t-209 -25.5h-180q-180 0 -180 -134v-88q0 -133 180 -133h803v-213h-803q-123 0 -209 25.5t-140 72t-79 110t-25 140.5zM884 1176v266 h232v-266h-232z" />
<glyph unicode="&#xc0;" d="M0 0l958 1442h199l952 -1442h-307l-743 1161l-756 -1161h-303zM657 1626v232l672 -142v-170z" />
<glyph unicode="&#xc1;" d="M0 0l958 1442h199l952 -1442h-307l-743 1161l-756 -1161h-303zM780 1546v170l670 142v-232z" />
<glyph unicode="&#xc2;" d="M0 0l958 1442h199l952 -1442h-307l-743 1161l-756 -1161h-303zM694 1546l213 312h295l211 -312h-223l-127 207h-20l-123 -207h-226z" />
<glyph unicode="&#xc3;" d="M0 0l958 1442h199l952 -1442h-307l-743 1161l-756 -1161h-303zM718 1591v170q33 33 77 47.5t95 14.5q45 0 85 -13.5t80 -30t80 -29.5t83 -13q53 0 98 21.5t74 51.5v-168q-33 -35 -77 -48t-95 -13q-43 0 -83 13.5t-80 28.5t-80 28.5t-85 13.5q-53 0 -98 -21.5t-74 -52.5z " />
<glyph unicode="&#xc4;" d="M0 0l958 1442h199l952 -1442h-307l-743 1161l-756 -1161h-303zM634 1614v266h281v-266h-281zM1191 1614v266h281v-266h-281z" />
<glyph unicode="&#xc5;" d="M0 0l958 1442h199l952 -1442h-307l-743 1161l-756 -1161h-303zM729 1724v56q0 180 232 180h184q236 0 236 -180v-56q0 -178 -236 -178h-184q-231 0 -232 178zM883 1726q0 -66 63 -65h213q66 0 66 65v52q0 66 -66 65h-213q-63 0 -63 -65v-52z" />
<glyph unicode="&#xc6;" horiz-adv-x="3059" d="M0 0l1522 1442h1439v-213h-1210v-361h1149v-213h-1149v-442h1210v-213h-1482v1055l-1121 -1055h-358z" />
<glyph unicode="&#xc7;" horiz-adv-x="1832" d="M123 348v746q0 78 24.5 141t79 109.5t140.5 72t208 25.5h1162v-213h-1162q-180 0 -180 -133v-750q0 -133 180 -133h1162v-213h-1162q-123 0 -208.5 25.5t-140 71.5t-79 109.5t-24.5 141.5zM817 -76h281v-123l-172 -293h-109v416z" />
<glyph unicode="&#xc8;" horiz-adv-x="1714" d="M133 0v1442h1483v-213h-1210v-361h1148v-213h-1148v-442h1210v-213h-1483zM458 1626v232l672 -142v-170z" />
<glyph unicode="&#xc9;" horiz-adv-x="1714" d="M133 0v1442h1483v-213h-1210v-361h1148v-213h-1148v-442h1210v-213h-1483zM583 1546v170l670 142v-232z" />
<glyph unicode="&#xca;" horiz-adv-x="1714" d="M133 0v1442h1483v-213h-1210v-361h1148v-213h-1148v-442h1210v-213h-1483zM518 1546l213 312h295l211 -312h-223l-127 207h-20l-123 -207h-226z" />
<glyph unicode="&#xcb;" horiz-adv-x="1714" d="M133 0v1442h1483v-213h-1210v-361h1148v-213h-1148v-442h1210v-213h-1483zM458 1614v266h281v-266h-281zM1015 1614v266h281v-266h-281z" />
<glyph unicode="&#xcc;" horiz-adv-x="559" d="M-115 1626v232l672 -142v-170zM143 0v1442h273v-1442h-273z" />
<glyph unicode="&#xcd;" horiz-adv-x="559" d="M8 1546v170l670 142v-232zM143 0v1442h273v-1442h-273z" />
<glyph unicode="&#xce;" horiz-adv-x="559" d="M-78 1546l213 312h295l211 -312h-223l-127 207h-20l-123 -207h-226zM143 0v1442h273v-1442h-273z" />
<glyph unicode="&#xcf;" horiz-adv-x="559" d="M-138 1614v266h281v-266h-281zM143 0v1442h273v-1442h-273zM419 1614v266h281v-266h-281z" />
<glyph unicode="&#xd0;" d="M0 655v213h133v574h1321q154 0 256 -26.5t163.5 -80t87.5 -133.5t26 -186v-604q0 -102 -26 -179t-87.5 -128.5t-163.5 -78t-256 -26.5h-1321v655h-133zM406 213h1048q76 0 126 10t80 33t42 61.5t12 96.5v602q0 61 -12 102t-42 65.5t-80 35t-126 10.5h-1048v-361h657v-213 h-657v-442z" />
<glyph unicode="&#xd1;" horiz-adv-x="2174" d="M133 0v1442h236l1435 -1071v1071h238v-1442h-133l-1538 1122v-1122h-238zM772 1591v170q33 33 77 47.5t95 14.5q45 0 85 -13.5t80 -30t80 -29.5t83 -13q53 0 98 21.5t74 51.5v-168q-33 -35 -77 -48t-95 -13q-43 0 -83 13.5t-80 28.5t-80 28.5t-85 13.5q-53 0 -98 -21.5 t-74 -52.5z" />
<glyph unicode="&#xd2;" horiz-adv-x="2103" d="M123 348v746q0 78 24.5 141t79 109.5t140.5 72t208 25.5h953q123 0 209 -25.5t140 -72t78.5 -110t24.5 -140.5v-746q0 -78 -24.5 -141.5t-78.5 -109.5t-140 -71.5t-209 -25.5h-953q-123 0 -208.5 25.5t-140 71.5t-79 109.5t-24.5 141.5zM395 346q0 -133 180 -133h953 q180 0 180 133v750q0 133 -180 133h-953q-180 0 -180 -133v-750zM653 1626v232l672 -142v-170z" />
<glyph unicode="&#xd3;" horiz-adv-x="2103" d="M123 348v746q0 78 24.5 141t79 109.5t140.5 72t208 25.5h953q123 0 209 -25.5t140 -72t78.5 -110t24.5 -140.5v-746q0 -78 -24.5 -141.5t-78.5 -109.5t-140 -71.5t-209 -25.5h-953q-123 0 -208.5 25.5t-140 71.5t-79 109.5t-24.5 141.5zM395 346q0 -133 180 -133h953 q180 0 180 133v750q0 133 -180 133h-953q-180 0 -180 -133v-750zM778 1546v170l670 142v-232z" />
<glyph unicode="&#xd4;" horiz-adv-x="2103" d="M123 348v746q0 78 24.5 141t79 109.5t140.5 72t208 25.5h953q123 0 209 -25.5t140 -72t78.5 -110t24.5 -140.5v-746q0 -78 -24.5 -141.5t-78.5 -109.5t-140 -71.5t-209 -25.5h-953q-123 0 -208.5 25.5t-140 71.5t-79 109.5t-24.5 141.5zM395 346q0 -133 180 -133h953 q180 0 180 133v750q0 133 -180 133h-953q-180 0 -180 -133v-750zM692 1546l213 312h295l211 -312h-223l-127 207h-20l-123 -207h-226z" />
<glyph unicode="&#xd5;" horiz-adv-x="2103" d="M123 348v746q0 78 24.5 141t79 109.5t140.5 72t208 25.5h953q123 0 209 -25.5t140 -72t78.5 -110t24.5 -140.5v-746q0 -78 -24.5 -141.5t-78.5 -109.5t-140 -71.5t-209 -25.5h-953q-123 0 -208.5 25.5t-140 71.5t-79 109.5t-24.5 141.5zM395 346q0 -133 180 -133h953 q180 0 180 133v750q0 133 -180 133h-953q-180 0 -180 -133v-750zM714 1591v170q33 33 77 47.5t95 14.5q45 0 85 -13.5t80 -30t80 -29.5t83 -13q53 0 98 21.5t74 51.5v-168q-33 -35 -77 -48t-95 -13q-43 0 -83 13.5t-80 28.5t-80 28.5t-85 13.5q-53 0 -98 -21.5t-74 -52.5z " />
<glyph unicode="&#xd6;" horiz-adv-x="2103" d="M123 348v746q0 78 24.5 141t79 109.5t140.5 72t208 25.5h953q123 0 209 -25.5t140 -72t78.5 -110t24.5 -140.5v-746q0 -78 -24.5 -141.5t-78.5 -109.5t-140 -71.5t-209 -25.5h-953q-123 0 -208.5 25.5t-140 71.5t-79 109.5t-24.5 141.5zM395 346q0 -133 180 -133h953 q180 0 180 133v750q0 133 -180 133h-953q-180 0 -180 -133v-750zM632 1614v266h281v-266h-281zM1189 1614v266h281v-266h-281z" />
<glyph unicode="&#xd7;" horiz-adv-x="1112" d="M166 463l283 280l-283 281l108 109l281 -283l281 283l108 -109l-282 -281l282 -280l-108 -109l-281 283l-281 -283z" />
<glyph unicode="&#xd8;" horiz-adv-x="2103" d="M123 348v746q0 78 24.5 141t79 109.5t140.5 72t208 25.5h953q27 0 50.5 -1t45.5 -3l160 170l92 -84l-111 -117q115 -41 165 -122t50 -191v-746q0 -78 -24.5 -141.5t-78.5 -109.5t-140 -71.5t-209 -25.5h-953q-61 0 -116 6l-137 -147l-97 80l94 102q-104 41 -150 121 t-46 186zM395 346q0 -96 94 -123l941 1006h-855q-180 0 -180 -133v-750zM653 213h875q180 0 180 133v750q0 106 -113 127z" />
<glyph unicode="&#xd9;" horiz-adv-x="2054" d="M127 348v1094h272v-1096q0 -133 181 -133h895q180 0 180 133v1096h272v-1094q0 -78 -15.5 -141.5t-59.5 -109.5t-120.5 -71.5t-199.5 -25.5h-952q-123 0 -209 25.5t-140.5 71.5t-79 109.5t-24.5 141.5zM628 1626v232l672 -142v-170z" />
<glyph unicode="&#xda;" horiz-adv-x="2054" d="M127 348v1094h272v-1096q0 -133 181 -133h895q180 0 180 133v1096h272v-1094q0 -78 -15.5 -141.5t-59.5 -109.5t-120.5 -71.5t-199.5 -25.5h-952q-123 0 -209 25.5t-140.5 71.5t-79 109.5t-24.5 141.5zM753 1546v170l670 142v-232z" />
<glyph unicode="&#xdb;" horiz-adv-x="2054" d="M127 348v1094h272v-1096q0 -133 181 -133h895q180 0 180 133v1096h272v-1094q0 -78 -15.5 -141.5t-59.5 -109.5t-120.5 -71.5t-199.5 -25.5h-952q-123 0 -209 25.5t-140.5 71.5t-79 109.5t-24.5 141.5zM667 1546l213 312h295l211 -312h-223l-127 207h-20l-123 -207h-226z " />
<glyph unicode="&#xdc;" horiz-adv-x="2054" d="M127 348v1094h272v-1096q0 -133 181 -133h895q180 0 180 133v1096h272v-1094q0 -78 -15.5 -141.5t-59.5 -109.5t-120.5 -71.5t-199.5 -25.5h-952q-123 0 -209 25.5t-140.5 71.5t-79 109.5t-24.5 141.5zM608 1614v266h281v-266h-281zM1165 1614v266h281v-266h-281z" />
<glyph unicode="&#xdd;" horiz-adv-x="2117" d="M0 1442h348l713 -660l713 660h344l-920 -856v-586h-272v586zM786 1546v170l670 142v-232z" />
<glyph unicode="&#xde;" horiz-adv-x="1712" d="M133 0v1442h273v-207h778q123 0 209 -25.5t140 -71.5t78.5 -109.5t24.5 -141.5v-334q0 -78 -24.5 -141.5t-78.5 -109.5t-140 -71.5t-209 -25.5h-778v-205h-273zM406 418h778q180 0 180 133v338q0 133 -180 133h-778v-604z" />
<glyph unicode="&#xdf;" horiz-adv-x="3895" d="M104 1010v84q0 78 25 141t79 109.5t140 72t209 25.5h1221v-213h-1221q-180 0 -180 -133v-88q0 -133 180 -134h848q123 0 209 -25.5t140 -71.5t79 -109.5t25 -141.5v-178q0 -78 -25 -141.5t-79 -109.5t-140 -71.5t-209 -25.5h-1253v213h1253q180 0 180 133v182 q0 133 -180 134h-848q-123 0 -209 25.5t-140 71.5t-79 109.5t-25 141.5zM2052 1010v84q0 78 25 141t79 109.5t140 72t209 25.5h1221v-213h-1221q-180 0 -180 -133v-88q0 -133 180 -134h848q123 0 209 -25.5t140 -71.5t79 -109.5t25 -141.5v-178q0 -78 -25 -141.5t-79 -109.5 t-140 -71.5t-209 -25.5h-1253v213h1253q180 0 180 133v182q0 133 -180 134h-848q-123 0 -209 25.5t-140 71.5t-79 109.5t-25 141.5z" />
<glyph unicode="&#xe0;" d="M0 0l958 1442h199l952 -1442h-307l-743 1161l-756 -1161h-303zM657 1626v232l672 -142v-170z" />
<glyph unicode="&#xe1;" d="M0 0l958 1442h199l952 -1442h-307l-743 1161l-756 -1161h-303zM780 1546v170l670 142v-232z" />
<glyph unicode="&#xe2;" d="M0 0l958 1442h199l952 -1442h-307l-743 1161l-756 -1161h-303zM694 1546l213 312h295l211 -312h-223l-127 207h-20l-123 -207h-226z" />
<glyph unicode="&#xe3;" d="M0 0l958 1442h199l952 -1442h-307l-743 1161l-756 -1161h-303zM718 1591v170q33 33 77 47.5t95 14.5q45 0 85 -13.5t80 -30t80 -29.5t83 -13q53 0 98 21.5t74 51.5v-168q-33 -35 -77 -48t-95 -13q-43 0 -83 13.5t-80 28.5t-80 28.5t-85 13.5q-53 0 -98 -21.5t-74 -52.5z " />
<glyph unicode="&#xe4;" d="M0 0l958 1442h199l952 -1442h-307l-743 1161l-756 -1161h-303zM634 1614v266h281v-266h-281zM1191 1614v266h281v-266h-281z" />
<glyph unicode="&#xe5;" d="M0 0l958 1442h199l952 -1442h-307l-743 1161l-756 -1161h-303zM729 1724v56q0 180 232 180h184q236 0 236 -180v-56q0 -178 -236 -178h-184q-231 0 -232 178zM883 1726q0 -66 63 -65h213q66 0 66 65v52q0 66 -66 65h-213q-63 0 -63 -65v-52z" />
<glyph unicode="&#xe6;" horiz-adv-x="3059" d="M0 0l1522 1442h1439v-213h-1210v-361h1149v-213h-1149v-442h1210v-213h-1482v1055l-1121 -1055h-358z" />
<glyph unicode="&#xe7;" horiz-adv-x="1832" d="M123 348v746q0 78 24.5 141t79 109.5t140.5 72t208 25.5h1162v-213h-1162q-180 0 -180 -133v-750q0 -133 180 -133h1162v-213h-1162q-123 0 -208.5 25.5t-140 71.5t-79 109.5t-24.5 141.5zM817 -76h281v-123l-172 -293h-109v416z" />
<glyph unicode="&#xe8;" horiz-adv-x="1714" d="M133 0v1442h1483v-213h-1210v-361h1148v-213h-1148v-442h1210v-213h-1483zM458 1626v232l672 -142v-170z" />
<glyph unicode="&#xe9;" horiz-adv-x="1714" d="M133 0v1442h1483v-213h-1210v-361h1148v-213h-1148v-442h1210v-213h-1483zM583 1546v170l670 142v-232z" />
<glyph unicode="&#xea;" horiz-adv-x="1714" d="M133 0v1442h1483v-213h-1210v-361h1148v-213h-1148v-442h1210v-213h-1483zM518 1546l213 312h295l211 -312h-223l-127 207h-20l-123 -207h-226z" />
<glyph unicode="&#xeb;" horiz-adv-x="1714" d="M133 0v1442h1483v-213h-1210v-361h1148v-213h-1148v-442h1210v-213h-1483zM458 1614v266h281v-266h-281zM1015 1614v266h281v-266h-281z" />
<glyph unicode="&#xec;" horiz-adv-x="559" d="M-115 1626v232l672 -142v-170zM143 0v1442h273v-1442h-273z" />
<glyph unicode="&#xed;" horiz-adv-x="559" d="M8 1546v170l670 142v-232zM143 0v1442h273v-1442h-273z" />
<glyph unicode="&#xee;" horiz-adv-x="559" d="M-78 1546l213 312h295l211 -312h-223l-127 207h-20l-123 -207h-226zM143 0v1442h273v-1442h-273z" />
<glyph unicode="&#xef;" horiz-adv-x="559" d="M-138 1614v266h281v-266h-281zM143 0v1442h273v-1442h-273zM419 1614v266h281v-266h-281z" />
<glyph unicode="&#xf0;" d="M0 655v213h133v574h1321q154 0 256 -26.5t163.5 -80t87.5 -133.5t26 -186v-604q0 -102 -26 -179t-87.5 -128.5t-163.5 -78t-256 -26.5h-1321v655h-133zM406 213h1048q76 0 126 10t80 33t42 61.5t12 96.5v602q0 61 -12 102t-42 65.5t-80 35t-126 10.5h-1048v-361h657v-213 h-657v-442z" />
<glyph unicode="&#xf1;" horiz-adv-x="2174" d="M133 0v1442h236l1435 -1071v1071h238v-1442h-133l-1538 1122v-1122h-238zM772 1591v170q33 33 77 47.5t95 14.5q45 0 85 -13.5t80 -30t80 -29.5t83 -13q53 0 98 21.5t74 51.5v-168q-33 -35 -77 -48t-95 -13q-43 0 -83 13.5t-80 28.5t-80 28.5t-85 13.5q-53 0 -98 -21.5 t-74 -52.5z" />
<glyph unicode="&#xf2;" horiz-adv-x="2103" d="M123 348v746q0 78 24.5 141t79 109.5t140.5 72t208 25.5h953q123 0 209 -25.5t140 -72t78.5 -110t24.5 -140.5v-746q0 -78 -24.5 -141.5t-78.5 -109.5t-140 -71.5t-209 -25.5h-953q-123 0 -208.5 25.5t-140 71.5t-79 109.5t-24.5 141.5zM395 346q0 -133 180 -133h953 q180 0 180 133v750q0 133 -180 133h-953q-180 0 -180 -133v-750zM653 1626v232l672 -142v-170z" />
<glyph unicode="&#xf3;" horiz-adv-x="2103" d="M123 348v746q0 78 24.5 141t79 109.5t140.5 72t208 25.5h953q123 0 209 -25.5t140 -72t78.5 -110t24.5 -140.5v-746q0 -78 -24.5 -141.5t-78.5 -109.5t-140 -71.5t-209 -25.5h-953q-123 0 -208.5 25.5t-140 71.5t-79 109.5t-24.5 141.5zM395 346q0 -133 180 -133h953 q180 0 180 133v750q0 133 -180 133h-953q-180 0 -180 -133v-750zM778 1546v170l670 142v-232z" />
<glyph unicode="&#xf4;" horiz-adv-x="2103" d="M123 348v746q0 78 24.5 141t79 109.5t140.5 72t208 25.5h953q123 0 209 -25.5t140 -72t78.5 -110t24.5 -140.5v-746q0 -78 -24.5 -141.5t-78.5 -109.5t-140 -71.5t-209 -25.5h-953q-123 0 -208.5 25.5t-140 71.5t-79 109.5t-24.5 141.5zM395 346q0 -133 180 -133h953 q180 0 180 133v750q0 133 -180 133h-953q-180 0 -180 -133v-750zM692 1546l213 312h295l211 -312h-223l-127 207h-20l-123 -207h-226z" />
<glyph unicode="&#xf5;" horiz-adv-x="2103" d="M123 348v746q0 78 24.5 141t79 109.5t140.5 72t208 25.5h953q123 0 209 -25.5t140 -72t78.5 -110t24.5 -140.5v-746q0 -78 -24.5 -141.5t-78.5 -109.5t-140 -71.5t-209 -25.5h-953q-123 0 -208.5 25.5t-140 71.5t-79 109.5t-24.5 141.5zM395 346q0 -133 180 -133h953 q180 0 180 133v750q0 133 -180 133h-953q-180 0 -180 -133v-750zM714 1591v170q33 33 77 47.5t95 14.5q45 0 85 -13.5t80 -30t80 -29.5t83 -13q53 0 98 21.5t74 51.5v-168q-33 -35 -77 -48t-95 -13q-43 0 -83 13.5t-80 28.5t-80 28.5t-85 13.5q-53 0 -98 -21.5t-74 -52.5z " />
<glyph unicode="&#xf6;" horiz-adv-x="2103" d="M123 348v746q0 78 24.5 141t79 109.5t140.5 72t208 25.5h953q123 0 209 -25.5t140 -72t78.5 -110t24.5 -140.5v-746q0 -78 -24.5 -141.5t-78.5 -109.5t-140 -71.5t-209 -25.5h-953q-123 0 -208.5 25.5t-140 71.5t-79 109.5t-24.5 141.5zM395 346q0 -133 180 -133h953 q180 0 180 133v750q0 133 -180 133h-953q-180 0 -180 -133v-750zM632 1614v266h281v-266h-281zM1189 1614v266h281v-266h-281z" />
<glyph unicode="&#xf7;" horiz-adv-x="1112" d="M82 668v151h946v-151h-946zM395 123v266h321v-266h-321zM395 1044v266h321v-266h-321z" />
<glyph unicode="&#xf8;" horiz-adv-x="2103" d="M123 348v746q0 78 24.5 141t79 109.5t140.5 72t208 25.5h953q27 0 50.5 -1t45.5 -3l160 170l92 -84l-111 -117q115 -41 165 -122t50 -191v-746q0 -78 -24.5 -141.5t-78.5 -109.5t-140 -71.5t-209 -25.5h-953q-61 0 -116 6l-137 -147l-97 80l94 102q-104 41 -150 121 t-46 186zM395 346q0 -96 94 -123l941 1006h-855q-180 0 -180 -133v-750zM653 213h875q180 0 180 133v750q0 106 -113 127z" />
<glyph unicode="&#xf9;" horiz-adv-x="2054" d="M127 348v1094h272v-1096q0 -133 181 -133h895q180 0 180 133v1096h272v-1094q0 -78 -15.5 -141.5t-59.5 -109.5t-120.5 -71.5t-199.5 -25.5h-952q-123 0 -209 25.5t-140.5 71.5t-79 109.5t-24.5 141.5zM628 1626v232l672 -142v-170z" />
<glyph unicode="&#xfa;" horiz-adv-x="2054" d="M127 348v1094h272v-1096q0 -133 181 -133h895q180 0 180 133v1096h272v-1094q0 -78 -15.5 -141.5t-59.5 -109.5t-120.5 -71.5t-199.5 -25.5h-952q-123 0 -209 25.5t-140.5 71.5t-79 109.5t-24.5 141.5zM753 1546v170l670 142v-232z" />
<glyph unicode="&#xfb;" horiz-adv-x="2054" d="M127 348v1094h272v-1096q0 -133 181 -133h895q180 0 180 133v1096h272v-1094q0 -78 -15.5 -141.5t-59.5 -109.5t-120.5 -71.5t-199.5 -25.5h-952q-123 0 -209 25.5t-140.5 71.5t-79 109.5t-24.5 141.5zM667 1546l213 312h295l211 -312h-223l-127 207h-20l-123 -207h-226z " />
<glyph unicode="&#xfc;" horiz-adv-x="2054" d="M127 348v1094h272v-1096q0 -133 181 -133h895q180 0 180 133v1096h272v-1094q0 -78 -15.5 -141.5t-59.5 -109.5t-120.5 -71.5t-199.5 -25.5h-952q-123 0 -209 25.5t-140.5 71.5t-79 109.5t-24.5 141.5zM608 1614v266h281v-266h-281zM1165 1614v266h281v-266h-281z" />
<glyph unicode="&#xfd;" horiz-adv-x="2117" d="M0 1442h348l713 -660l713 660h344l-920 -856v-586h-272v586zM786 1546v170l670 142v-232z" />
<glyph unicode="&#xfe;" horiz-adv-x="1712" d="M133 0v1442h273v-207h778q123 0 209 -25.5t140 -71.5t78.5 -109.5t24.5 -141.5v-334q0 -78 -24.5 -141.5t-78.5 -109.5t-140 -71.5t-209 -25.5h-778v-205h-273zM406 418h778q180 0 180 133v338q0 133 -180 133h-778v-604z" />
<glyph unicode="&#xff;" horiz-adv-x="2117" d="M0 1442h348l713 -660l713 660h344l-920 -856v-586h-272v586zM639 1614v266h281v-266h-281zM1196 1614v266h281v-266h-281z" />
<glyph unicode="&#x152;" horiz-adv-x="2981" d="M123 348v746q0 78 24.5 141t79 109.5t140.5 72t208 25.5h2309v-213h-1211v-361h1149v-213h-1149v-442h1211v-213h-2309q-123 0 -208.5 25.5t-140 71.5t-79 109.5t-24.5 141.5zM395 346q0 -133 180 -133h826v1016h-826q-180 0 -180 -133v-750z" />
<glyph unicode="&#x153;" horiz-adv-x="2981" d="M123 348v746q0 78 24.5 141t79 109.5t140.5 72t208 25.5h2309v-213h-1211v-361h1149v-213h-1149v-442h1211v-213h-2309q-123 0 -208.5 25.5t-140 71.5t-79 109.5t-24.5 141.5zM395 346q0 -133 180 -133h826v1016h-826q-180 0 -180 -133v-750z" />
<glyph unicode="&#x178;" horiz-adv-x="2117" d="M0 1442h348l713 -660l713 660h344l-920 -856v-586h-272v586zM639 1614v266h281v-266h-281zM1196 1614v266h281v-266h-281z" />
<glyph unicode="&#x2c6;" horiz-adv-x="923" d="M102 1546l213 312h295l211 -312h-223l-127 207h-20l-123 -207h-226z" />
<glyph unicode="&#x2dc;" horiz-adv-x="876" d="M102 1591v170q33 33 77 47.5t95 14.5q45 0 85 -13.5t80 -30t80 -29.5t83 -13q53 0 98 21.5t74 51.5v-168q-33 -35 -77 -48t-95 -13q-43 0 -83 13.5t-80 28.5t-80 28.5t-85 13.5q-53 0 -98 -21.5t-74 -52.5z" />
<glyph unicode="&#x2000;" horiz-adv-x="980" />
<glyph unicode="&#x2001;" horiz-adv-x="1960" />
<glyph unicode="&#x2002;" horiz-adv-x="980" />
<glyph unicode="&#x2003;" horiz-adv-x="1960" />
<glyph unicode="&#x2004;" horiz-adv-x="653" />
<glyph unicode="&#x2005;" horiz-adv-x="490" />
<glyph unicode="&#x2006;" horiz-adv-x="326" />
<glyph unicode="&#x2007;" horiz-adv-x="326" />
<glyph unicode="&#x2008;" horiz-adv-x="245" />
<glyph unicode="&#x2009;" horiz-adv-x="392" />
<glyph unicode="&#x200a;" horiz-adv-x="108" />
<glyph unicode="&#x2010;" horiz-adv-x="854" d="M43 657v228h766v-228h-766z" />
<glyph unicode="&#x2011;" horiz-adv-x="854" d="M43 657v228h766v-228h-766z" />
<glyph unicode="&#x2012;" horiz-adv-x="854" d="M43 657v228h766v-228h-766z" />
<glyph unicode="&#x2013;" horiz-adv-x="1402" d="M43 657v228h1315v-228h-1315z" />
<glyph unicode="&#x2014;" horiz-adv-x="2428" d="M43 657v228h2341v-228h-2341z" />
<glyph unicode="&#x2018;" horiz-adv-x="542" d="M123 1319v123h280v-416h-108z" />
<glyph unicode="&#x2019;" horiz-adv-x="542" d="M123 1026v416h280v-123l-172 -293h-108z" />
<glyph unicode="&#x201a;" horiz-adv-x="542" d="M123 -150v416h280v-123l-172 -293h-108z" />
<glyph unicode="&#x201c;" horiz-adv-x="931" d="M123 1319v123h280v-416h-108zM512 1319v123h281v-416h-109z" />
<glyph unicode="&#x201d;" horiz-adv-x="931" d="M123 1026v416h280v-123l-172 -293h-108zM512 1026v416h281v-123l-172 -293h-109z" />
<glyph unicode="&#x201e;" horiz-adv-x="931" d="M123 -150v416h280v-123l-172 -293h-108zM512 -150v416h281v-123l-172 -293h-109z" />
<glyph unicode="&#x2022;" horiz-adv-x="761" d="M123 731q0 55 20.5 103.5t55 84t83 56t103.5 20.5t103.5 -20.5t84 -56t56 -84t20.5 -103.5t-20.5 -103t-56 -83t-84 -55.5t-103.5 -20.5t-103.5 20.5t-83 55.5t-55 83t-20.5 103z" />
<glyph unicode="&#x2026;" horiz-adv-x="2918" d="M123 0v266h321v-266h-321zM1290 0v266h321v-266h-321zM2458 0v266h321v-266h-321z" />
<glyph unicode="&#x202f;" horiz-adv-x="392" />
<glyph unicode="&#x2039;" horiz-adv-x="700" d="M106 678v135l488 281v-176l-309 -175l309 -176v-174z" />
<glyph unicode="&#x203a;" horiz-adv-x="700" d="M106 393v174l310 176l-310 175v176l488 -281v-135z" />
<glyph unicode="&#x205f;" horiz-adv-x="490" />
<glyph unicode="&#x20ac;" horiz-adv-x="1540" d="M14 451l41 192h152v156h-193l41 192h152v139q0 311 514 312h719l-99 -213h-620q-242 0 -242 -99v-139h754l-88 -192h-666v-156h594l-88 -192h-506v-140q0 -98 242 -98h715v-213h-715q-514 0 -514 311v140h-193z" />
<glyph unicode="&#x2122;" horiz-adv-x="1308" d="M100 1294v148h455v-148h-160v-540h-133v540h-162zM623 754v688h120l156 -385l156 385h121v-688h-136v258l-141 -258l-145 256v-256h-131z" />
<glyph unicode="&#xe000;" horiz-adv-x="1443" d="M0 0v1444h1444v-1444h-1444z" />
</font>
</defs>
</svg>
